<svg width="24" height="24" viewBox="0 0 24 24" fill="none" xmlns="http://www.w3.org/2000/svg">
<path d="M17 2.00049H7C4.23858 2.00049 2 4.23906 2 7.00049V17.0005C2 19.7619 4.23858 22.0005 7 22.0005H17C19.7614 22.0005 22 19.7619 22 17.0005V7.00049C22 4.23906 19.7614 2.00049 17 2.00049Z" stroke="white" stroke-width="2" stroke-linecap="round" stroke-linejoin="round"/>
<path d="M16.0007 11.3703C16.1241 12.2025 15.9819 13.0525 15.5944 13.7993C15.2069 14.5461 14.5938 15.1517 13.8423 15.53C13.0908 15.9082 12.2391 16.0399 11.4085 15.9062C10.5778 15.7726 9.81044 15.3804 9.21552 14.7855C8.6206 14.1905 8.22842 13.4232 8.09475 12.5925C7.96109 11.7619 8.09275 10.9102 8.47101 10.1587C8.84927 9.40716 9.45487 8.79404 10.2017 8.40654C10.9485 8.01904 11.7984 7.87689 12.6307 8.0003C13.4796 8.12619 14.2655 8.52176 14.8724 9.12861C15.4792 9.73545 15.8748 10.5214 16.0007 11.3703Z" stroke="white" stroke-width="2" stroke-linecap="round" stroke-linejoin="round"/>
<path d="M17.5 6.50049H17.51" stroke="white" stroke-width="2" stroke-linecap="round" stroke-linejoin="round"/>
</svg>
