<svg width="24" height="24" viewBox="0 0 24 24" fill="none" xmlns="http://www.w3.org/2000/svg">
<path d="M16 8.00049C17.5913 8.00049 19.1174 8.63263 20.2426 9.75785C21.3679 10.8831 22 12.4092 22 14.0005V21.0005H18V14.0005C18 13.4701 17.7893 12.9613 17.4142 12.5863C17.0391 12.2112 16.5304 12.0005 16 12.0005C15.4696 12.0005 14.9609 12.2112 14.5858 12.5863C14.2107 12.9613 14 13.4701 14 14.0005V21.0005H10V14.0005C10 12.4092 10.6321 10.8831 11.7574 9.75785C12.8826 8.63263 14.4087 8.00049 16 8.00049V8.00049Z" stroke="white" stroke-width="2" stroke-linecap="round" stroke-linejoin="round"/>
<path d="M6 9H2V21H6V9Z" stroke="white" stroke-width="2" stroke-linecap="round" stroke-linejoin="round"/>
<path d="M4 6.00049C5.10457 6.00049 6 5.10506 6 4.00049C6 2.89592 5.10457 2.00049 4 2.00049C2.89543 2.00049 2 2.89592 2 4.00049C2 5.10506 2.89543 6.00049 4 6.00049Z" stroke="white" stroke-width="2" stroke-linecap="round" stroke-linejoin="round"/>
</svg>
