<svg width="192" height="34" viewBox="0 0 192 34" fill="none" xmlns="http://www.w3.org/2000/svg">
<path d="M78.5274 5.54321C80.9312 5.54321 82.8512 6.33455 84.2873 7.91722C85.7235 9.49989 86.4415 11.6179 86.4454 14.2712V27.3243H81.0425V14.6552C81.0425 13.3829 80.7353 12.3937 80.1209 11.6877C79.4566 10.9584 78.5005 10.5705 77.5213 10.6287C76.4269 10.5705 75.3671 11.0244 74.6451 11.8584C73.9616 12.6769 73.6199 13.8639 73.6199 15.4155V27.3243H68.2055V14.6552C68.2055 13.3829 67.8983 12.3937 67.2839 11.6877C66.6196 10.9584 65.6634 10.5705 64.6843 10.6287C63.586 10.5822 62.53 11.0399 61.8081 11.8778C61.0977 12.7118 60.7444 13.891 60.7406 15.4155V27.3243H55.3301V6.13671H60.7406V8.38271C62.0001 6.48971 63.9431 5.54321 66.5697 5.54321C69.1962 5.54321 71.097 6.55566 72.2759 8.58442C73.6468 6.55566 75.7319 5.54321 78.5274 5.54321Z" fill="#30384C"/>
<path d="M108.94 24.6981C104.593 29.097 97.5354 29.1047 93.1809 24.7136C88.8263 20.3224 88.8186 13.1927 93.1655 8.79377C97.5123 4.39488 104.57 4.38712 108.925 8.77825C113.279 13.1694 113.287 20.2992 108.94 24.6981ZM96.9824 20.9276C99.2595 23.1309 102.846 23.1309 105.123 20.9276C107.304 18.5613 107.304 14.8995 105.123 12.5332C102.846 10.3299 99.2595 10.3299 96.9824 12.5332C94.8589 14.9189 94.8589 18.5419 96.9824 20.9276Z" fill="#30384C"/>
<path d="M139.184 5.54321C141.591 5.54321 143.511 6.33455 144.944 7.91722C146.376 9.49989 147.094 11.6179 147.105 14.2712V27.3243H141.695V14.6552C141.695 13.3829 141.384 12.3937 140.77 11.6877C140.105 10.9584 139.149 10.5705 138.17 10.6287C137.075 10.5705 136.016 11.0244 135.298 11.8584C134.61 12.6769 134.265 13.8639 134.268 15.4155V27.3243H128.866V14.6552C128.866 13.3829 128.558 12.3937 127.944 11.6877C127.276 10.9584 126.32 10.5705 125.341 10.6287C124.246 10.5822 123.186 11.0399 122.468 11.8778C121.754 12.7118 121.397 13.891 121.397 15.4155V27.3243H115.986V6.13671H121.397V8.38271C122.656 6.48971 124.599 5.54321 127.23 5.54321C129.86 5.54321 131.761 6.55566 132.936 8.58442C134.303 6.55566 136.384 5.54321 139.184 5.54321Z" fill="#30384C"/>
<path d="M169.596 24.698C165.249 29.0969 158.195 29.1047 153.837 24.7136C149.478 20.3224 149.474 13.1965 153.821 8.79376C158.168 4.39099 165.222 4.38711 169.58 8.77824C173.939 13.1733 173.943 20.2991 169.596 24.698ZM157.642 20.9276C159.915 23.1309 163.506 23.1309 165.779 20.9276C167.96 18.5613 167.96 14.8995 165.779 12.5332C163.506 10.3299 159.915 10.3299 157.642 12.5332C155.519 14.9188 155.519 18.5419 157.642 20.9276Z" fill="#30384C"/>
<path d="M181.178 12.1532C181.178 13.0571 182.449 13.8329 184.995 14.4807C185.821 14.6591 186.631 14.8919 187.426 15.1789C188.201 15.4815 188.942 15.8694 189.63 16.3427C190.367 16.8353 190.97 17.5141 191.369 18.3132C191.803 19.1938 192.018 20.1674 191.999 21.1527C191.999 23.3289 191.189 25.0086 189.564 26.1956C187.94 27.3826 185.936 27.9567 183.551 27.9179C179.246 27.9179 176.313 26.2382 174.742 22.875L179.458 20.2217C180.099 22.0566 181.466 22.972 183.566 22.9759C185.498 22.9759 186.466 22.3669 186.462 21.1527C186.462 20.2489 185.191 19.4731 182.645 18.8253C181.693 18.5731 180.882 18.3171 180.21 18.0495C179.45 17.7469 178.717 17.3706 178.029 16.9245C177.277 16.4629 176.658 15.8073 176.247 15.0199C175.825 14.1742 175.614 13.2316 175.637 12.2851C175.637 10.1943 176.393 8.55343 177.902 7.3703C179.542 6.12123 181.558 5.4773 183.609 5.54713C185.233 5.52773 186.838 5.92728 188.267 6.71086C189.657 7.48668 190.805 8.63877 191.58 10.0391L186.972 12.5799C186.42 11.2145 185.076 10.3494 183.616 10.4193C183.002 10.396 182.391 10.5667 181.877 10.908C181.447 11.1718 181.182 11.6451 181.178 12.1532Z" fill="#30384C"/>
<path d="M22.1528 4.20107C32.0906 4.20495 40.1469 12.3433 40.1508 22.3824C40.1508 24.1512 39.9012 25.5283 39.4173 26.4787C39.0794 27.1537 38.5341 27.7006 37.8621 28.0303C35.7962 29.1204 32.1022 29.2716 28.3736 29.2716C27.4289 29.2716 26.4536 29.2717 25.4437 29.2523C24.4337 29.2329 23.2779 29.229 22.1528 29.229C21.0277 29.229 19.9256 29.229 18.8581 29.2523C17.7906 29.2755 16.8728 29.2716 15.9282 29.2716C12.2188 29.2716 8.50554 29.1204 6.43963 28.0303C5.77532 27.6967 5.23388 27.1498 4.90365 26.4787C4.41981 25.5283 4.17405 24.1512 4.17405 22.3785C4.17021 12.3394 12.2265 4.20107 22.1643 4.19719C22.1682 4.19719 22.1682 4.19719 22.172 4.19719L22.1528 4.20107ZM22.172 1.01346e-05C9.93785 -0.0116271 0.0115199 10.0003 0 22.3591C0 22.3669 0 22.3746 0 22.3824C0 32.5572 6.72379 33.4572 15.9282 33.4572C17.902 33.4572 19.9909 33.4145 22.1528 33.4145C24.3147 33.4145 26.3998 33.4572 28.3736 33.4572C37.5895 33.4572 44.3018 32.5572 44.3018 22.3824C44.3018 10.0236 34.387 0.00776832 22.1528 0.00388923L22.172 1.01346e-05Z" fill="#D84339"/>
<path d="M22.1489 15.3885C21.3848 15.3885 20.7627 14.7601 20.7627 13.9881V8.39449C20.8011 7.62255 21.4539 7.02905 22.218 7.06784C22.9246 7.10663 23.4929 7.67686 23.5313 8.39449V13.9881C23.5313 14.7601 22.9131 15.3846 22.1489 15.3885Z" fill="#D84339"/>
<path d="M30.7616 15.3882C30.2471 15.3882 29.7748 15.1011 29.5367 14.6395C29.5367 14.6124 28.0007 11.7496 25.666 10.5626C24.9825 10.2173 24.7098 9.37557 25.0516 8.68509C25.3933 7.99462 26.2266 7.7192 26.9101 8.06444C30.0551 9.65875 31.9021 13.1887 31.9904 13.34C32.3437 14.0266 32.0826 14.8723 31.4029 15.2291C31.2071 15.3339 30.9843 15.3882 30.7616 15.3882Z" fill="#D84339"/>
<path d="M13.5209 15.3882C13.2982 15.3882 13.0755 15.3339 12.8796 15.2291C12.2 14.8723 11.9388 14.0266 12.2921 13.34C12.3728 13.1887 14.2121 9.65875 17.3724 8.06444C18.0559 7.7192 18.8892 7.99462 19.231 8.68509C19.5727 9.37557 19.3001 10.2173 18.6166 10.5626C16.3126 11.7263 14.7766 14.6085 14.7459 14.6395C14.5078 15.1011 14.0355 15.3882 13.5209 15.3882Z" fill="#D84339"/>
</svg>
