<svg width="24" height="24" viewBox="0 0 24 24" fill="none" xmlns="http://www.w3.org/2000/svg">
<path d="M21 11.5C21.0034 12.8199 20.6951 14.1219 20.1 15.3C19.3944 16.7118 18.3097 17.8992 16.9674 18.7293C15.6251 19.5594 14.0782 19.9994 12.5 20C11.1801 20.0035 9.87811 19.6951 8.7 19.1L3 21L4.9 15.3C4.30493 14.1219 3.99656 12.8199 4 11.5C4.00061 9.92179 4.44061 8.37488 5.27072 7.03258C6.10083 5.69028 7.28825 4.6056 8.7 3.90003C9.87811 3.30496 11.1801 2.99659 12.5 3.00003H13C15.0843 3.11502 17.053 3.99479 18.5291 5.47089C20.0052 6.94698 20.885 8.91568 21 11V11.5Z" stroke="white" stroke-width="2" stroke-linecap="round" stroke-linejoin="round"/>
<path d="M11.7376 9.60067L7.19967 14.4007L11.3296 12.137L13.4874 14.4007L17.9997 9.60067L13.9156 11.8247L11.7376 9.60067Z" fill="white"/>
<path fill-rule="evenodd" clip-rule="evenodd" d="M11.73 8.73535L14.027 11.0809L17.7127 9.07374L18.4368 10.0116L13.4904 15.2734L11.2135 12.8848L7.48807 14.9268L6.76367 13.9885L11.73 8.73535ZM14.9965 11.9193L13.8043 12.5686L11.7452 10.466L10.256 12.0412L11.4456 11.3891L13.4843 13.5279L14.9965 11.9193Z" fill="white"/>
</svg>
